<svg xmlns="http://www.w3.org/2000/svg" width="128" height="128" viewBox="0 0 128 128" role="img" aria-labelledby="t">
  <title id="t">AI Solutions logo</title>
  <defs><linearGradient id="g" x1="0" y1="0" x2="1" y2="1"><stop offset="0%" stop-color="#ff7a00"/><stop offset="100%" stop-color="#f43f5e"/></linearGradient></defs>
  <g fill="none" stroke="url(#g)" stroke-width="8" stroke-linecap="round" stroke-linejoin="round">
    <path d="M44 24c-12 0-20 10-20 22 0 4 1 8 3 11-7 3-11 10-11 18 0 12 10 22 22 22h18"/>
    <path d="M84 24c12 0 20 10 20 22 0 4-1 8-3 11 7 3 11 10 11 18 0 12-10 22-22 22H72"/>
    <path d="M64 24v80"/>
  </g>
  <path d="M28 84l24-24 16 16 32-32" fill="none" stroke="url(#g)" stroke-width="10" stroke-linecap="round" stroke-linejoin="round"/>
  <circle cx="28" cy="84" r="6" fill="#f43f5e"/>
</svg>
